<?xml version="1.0" encoding="utf-8"?>
<!-- Generator: Adobe Illustrator 26.0.3, SVG Export Plug-In . SVG Version: 6.00 Build 0)  -->
<svg version="1.1" id="Layer_1" xmlns="http://www.w3.org/2000/svg" xmlns:xlink="http://www.w3.org/1999/xlink" x="0px" y="0px"
	 viewBox="0 0 256 256" style="enable-background:new 0 0 256 256;" xml:space="preserve">
<style type="text/css">
	.st0{fill:#FFFFFF;}
	.st1{fill:#2684FF;}
	.st2{fill:url(#SVGID_1_);}
	.st3{fill:url(#SVGID_00000036239707410145383120000008157324305874050728_);}
</style>
<rect class="st0" width="256" height="256"/>
<g>
	<path class="st1" d="M210.9,123.1l-75.6-75.6l-7.3-7.3L71.1,97.1l-26,26c-2.7,2.7-2.7,7.1,0,9.8l52,52l31,30.9l56.9-56.9l0.9-0.9
		l25.1-25.1C213.7,130.3,213.7,125.8,210.9,123.1C211,123.1,211,123.1,210.9,123.1L210.9,123.1z M128,154l-26-26l26-26l26,26
		L128,154z"/>
	
		<linearGradient id="SVGID_1_" gradientUnits="userSpaceOnUse" x1="-36.4731" y1="70.4133" x2="-39.7635" y2="73.703" gradientTransform="matrix(11.028 0 0 11.028 525.5686 -700.7916)">
		<stop  offset="0.18" style="stop-color:#0052CC"/>
		<stop  offset="1" style="stop-color:#2684FF"/>
	</linearGradient>
	<path class="st2" d="M128,102c-17-17-17.1-44.6-0.2-61.7L70.9,97.2l30.9,30.9L128,102z"/>
	
		<linearGradient id="SVGID_00000172420671759153277920000011493286570550753685_" gradientUnits="userSpaceOnUse" x1="-35.6018" y1="79.8652" x2="-32.3178" y2="76.582" gradientTransform="matrix(11.028 0 0 11.028 525.5686 -700.7916)">
		<stop  offset="0.18" style="stop-color:#0052CC"/>
		<stop  offset="1" style="stop-color:#2684FF"/>
	</linearGradient>
	<path style="fill:url(#SVGID_00000172420671759153277920000011493286570550753685_);" d="M154,127.9L128,154
		c17.1,17.1,17.1,44.8,0,61.9l57-57L154,127.9z"/>
</g>
</svg>
